<?xml version="1.0" encoding="utf-8"?>
<!-- Generator: Adobe Illustrator 13.0.1, SVG Export Plug-In . SVG Version: 6.00 Build 14948)  -->
<!DOCTYPE svg PUBLIC "-//W3C//DTD SVG 1.1//EN" "http://www.w3.org/Graphics/SVG/1.1/DTD/svg11.dtd">
<svg version="1.1" id="Layer_1" focusable="false" xmlns="http://www.w3.org/2000/svg" xmlns:xlink="http://www.w3.org/1999/xlink"
	 x="0px" y="0px" width="792px" height="612px" viewBox="0 0 792 612" enable-background="new 0 0 792 612" xml:space="preserve">
<path fill="#A61C00" d="M637.932,76.858C568.842,18.767,462.101,27.492,396,94.788c-66.101-67.296-172.842-76.141-241.931-17.93
	c-89.888,75.664-76.739,199.02-12.67,264.403l209.658,213.603c11.953,12.192,27.97,19.005,44.943,19.005
	c17.093,0,32.99-6.693,44.943-18.886l209.658-213.603C714.551,275.998,727.938,152.642,637.932,76.858z M609.722,300.979
	L400.064,514.582c-2.869,2.869-5.26,2.869-8.129,0L182.278,300.979c-43.629-44.465-52.475-128.615,8.726-180.133
	c46.498-39.087,118.217-33.23,163.16,12.551L396,176.069l41.836-42.672c45.183-46.02,116.901-51.638,163.16-12.67
	C662.076,172.245,652.992,256.873,609.722,300.979z"/>
</svg>
